<svg width="30" height="30" viewBox="0 0 30 30" fill="none" xmlns="http://www.w3.org/2000/svg">
<path d="M10.3359 1.17188C10.0137 1.30078 9.87304 1.7168 10.043 2.03906C10.0898 2.12695 11.4199 3.48633 13.0019 5.06836L15.8789 7.93945L17.168 6.65039C17.8769 5.94141 18.457 5.34375 18.457 5.32031C18.457 5.26172 17.1797 4.24805 16.5234 3.78516C14.8125 2.57227 12.5977 1.52344 11.0859 1.20117C10.6055 1.10156 10.5117 1.10156 10.3359 1.17188Z" fill="white"/>
<path d="M17.6836 7.89266C16.1367 9.43954 15.334 10.2833 15.293 10.4063C15.252 10.5352 15.252 10.6407 15.293 10.7579C15.375 10.9747 18.9551 14.5782 19.1953 14.6837C19.5703 14.8477 19.6172 14.8067 22.1074 12.3165L24.4336 9.98446V9.69735V9.40438L22.5117 7.48837L20.5957 5.56649H20.3027H20.0156L17.6836 7.89266Z" fill="white"/>
<path d="M23.3496 12.8321L22.0605 14.1211L24.9316 16.9981C26.5137 18.5801 27.873 19.9102 27.9609 19.9571C28.3242 20.1504 28.7871 19.9395 28.8574 19.5528C28.9863 18.8438 27.9316 16.1602 26.8359 14.4141C26.2266 13.4473 24.791 11.543 24.6738 11.543C24.6562 11.543 24.0586 12.1231 23.3496 12.8321Z" fill="white"/>
<path d="M8.07419 19.2598C3.35739 23.9824 1.16599 26.2149 1.13669 26.3262C1.06052 26.6485 1.16013 26.7891 2.18552 27.8145C3.21091 28.8399 3.35153 28.9395 3.6738 28.8633C3.78513 28.834 6.01755 26.6426 10.7519 21.9082L17.666 15L16.3476 13.6817C15.6211 12.9551 15.0175 12.3633 15 12.3633C14.9824 12.3633 11.8652 15.4688 8.07419 19.2598Z" fill="white"/>
</svg>
