<svg width="50" height="50" viewBox="0 0 50 50" fill="none" xmlns="http://www.w3.org/2000/svg">
<path fill-rule="evenodd" clip-rule="evenodd" d="M25 0C38.8081 0 50 11.1919 50 25C50 38.8081 38.8081 50 25 50C11.1919 50 0 38.8081 0 25C0 11.1919 11.1919 0 25 0Z" fill="#F0B90B"/>
<path d="M13.74 25.0001L13.758 31.6106L19.375 34.9159V38.7861L10.4708 33.5638V23.067L13.74 25.0001ZM13.74 18.3895V22.2416L10.4688 20.3065V16.4544L13.74 14.5193L17.0272 16.4544L13.74 18.3895ZM21.7208 16.4544L24.992 14.5193L28.2792 16.4544L24.992 18.3895L21.7208 16.4544Z" fill="white"/>
<path d="M16.1038 30.2404V26.3702L19.375 28.3053V32.1575L16.1038 30.2404ZM21.7207 36.3021L24.992 38.2372L28.2792 36.3021V40.1543L24.992 42.0894L21.7207 40.1543V36.3021ZM32.9707 16.4544L36.242 14.5193L39.5292 16.4544V20.3065L36.242 22.2416V18.3895L32.9707 16.4544ZM36.242 31.6106L36.26 25.0001L39.5312 23.065V33.5618L30.627 38.7841V34.9139L36.242 31.6106Z" fill="white"/>
<path d="M33.8962 30.2404L30.625 32.1575V28.3053L33.8962 26.3702V30.2404Z" fill="white"/>
<path d="M33.8962 19.7596L33.9143 23.6298L28.2812 26.9351V33.5617L25.01 35.4788L21.7388 33.5617V26.9351L16.1058 23.6298V19.7596L19.391 17.8245L24.99 21.1458L30.623 17.8245L33.9102 19.7596H33.8962ZM16.1038 13.151L24.992 7.91064L33.8962 13.151L30.625 15.0861L24.992 11.7648L19.375 15.0861L16.1038 13.151Z" fill="white"/>
</svg>
