<svg width="50" height="50" viewBox="0 0 50 50" fill="none" xmlns="http://www.w3.org/2000/svg">
<g clip-path="url(#clip0_2_746)">
<circle cx="25" cy="25.1172" r="25" fill="#E4C107"/>
<path d="M15.5301 15.0307V21.6295H13.7514H11.9727V23.3036V24.9777L13.7374 24.9916L15.4953 25.0126L15.5162 31.5904L15.5301 38.1613L20.5385 38.1822C27.9255 38.2031 28.0232 38.2031 29.9344 37.7079C34.6498 36.5011 37.7469 33.3273 38.9328 28.5003C39.2676 27.1191 39.3931 26.0589 39.435 24.1685C39.4908 21.6504 39.2885 19.8019 38.7514 17.9325C37.3563 13.0776 33.8616 9.93163 28.6858 8.86439C26.9141 8.50167 26.7955 8.49469 20.9919 8.46679L15.5301 8.43889V15.0307ZM26.8304 14.1239C30.1576 14.8982 32.2712 16.6839 33.3036 19.6066C34.0918 21.8527 34.1337 25.1451 33.3873 27.4121C32.4595 30.2441 30.346 31.988 27.1443 32.553C26.6699 32.6367 25.8538 32.6786 23.817 32.6995L21.1105 32.7344V28.856V24.9777H24.1797H27.2489V23.3036V21.6295H24.1797H21.1105V17.786V13.9425L23.7123 13.9774C25.8468 13.9983 26.3979 14.0262 26.8304 14.1239Z" fill="white"/>
<path d="M15.9835 40.777C15.6906 41.063 15.7673 41.5095 16.137 41.7048C16.3532 41.8233 35.0753 41.8233 35.2916 41.7048C35.6613 41.5095 35.738 41.063 35.445 40.777L35.2776 40.6026H25.7143H16.1509L15.9835 40.777Z" fill="white"/>
</g>
<defs>
<clipPath id="clip0_2_746">
<rect width="50" height="50" fill="white"/>
</clipPath>
</defs>
</svg>
