<svg width="50" height="50" viewBox="0 0 50 50" fill="none" xmlns="http://www.w3.org/2000/svg">
<g clip-path="url(#clip0_2_752)">
<path d="M25 47.2942C37.3127 47.2942 47.2942 37.3127 47.2942 25C47.2942 12.6873 37.3127 2.70581 25 2.70581C12.6873 2.70581 2.70581 12.6873 2.70581 25C2.70581 37.3127 12.6873 47.2942 25 47.2942Z" fill="white"/>
<path d="M25 0C20.0555 0 15.222 1.46622 11.1107 4.21326C6.99951 6.9603 3.7952 10.8648 1.90301 15.4329C0.0108168 20.0011 -0.484267 25.0277 0.480364 29.8773C1.44499 34.7268 3.82601 39.1814 7.32233 42.6777C10.8186 46.174 15.2732 48.555 20.1227 49.5196C24.9723 50.4843 29.9989 49.9892 34.5671 48.097C39.1352 46.2048 43.0397 43.0005 45.7867 38.8893C48.5338 34.778 50 29.9445 50 25C50.0095 21.7265 49.3742 18.4832 48.1303 15.4552C46.8864 12.4272 45.0583 9.67386 42.7503 7.35239C40.4424 5.03092 37.6997 3.18678 34.6791 1.92525C31.6584 0.663727 28.4188 0.00952523 25.1453 0H25ZM25.4237 25.8475L22.8208 34.6247H36.7433C36.8356 34.6215 36.9275 34.6364 37.014 34.6688C37.1004 34.7011 37.1796 34.7501 37.2471 34.8131C37.3145 34.8761 37.3689 34.9517 37.4071 35.0357C37.4453 35.1197 37.4666 35.2104 37.4697 35.3027V35.5327L36.2591 39.7094C36.2057 39.907 36.0867 40.0805 35.9217 40.2015C35.7568 40.3225 35.5555 40.3838 35.3511 40.3753H14.0436L17.615 28.2082L13.6199 29.4189L14.5278 26.6344L18.523 25.4237L23.5472 8.35351C23.6025 8.1571 23.722 7.98484 23.8865 7.86417C24.0511 7.7435 24.2512 7.68136 24.4552 7.68765H29.8426C29.9348 7.68442 30.0268 7.69939 30.1132 7.73172C30.1997 7.76405 30.2789 7.8131 30.3463 7.87607C30.4138 7.93903 30.4682 8.01468 30.5064 8.09868C30.5446 8.18268 30.5659 8.27339 30.569 8.36562V8.59564L26.3317 23.0024L30.3269 21.7918L29.4794 24.6973L25.4237 25.8475Z" fill="#345D9D"/>
</g>
<defs>
<clipPath id="clip0_2_752">
<rect width="50" height="50" fill="white"/>
</clipPath>
</defs>
</svg>
