<svg width="50" height="51" viewBox="0 0 50 51" fill="none" xmlns="http://www.w3.org/2000/svg">
<g clip-path="url(#clip0_2_699)">
<circle cx="25" cy="25.2222" r="25" fill="#2B9E21"/>
</g>
<path d="M26.9531 10.6406V15.25H24.5156V10.6406H26.9531ZM26.6562 36.1562V40.3594H24.2188V36.1562H26.6562ZM28.375 31.0312C28.375 30.4375 28.2656 29.9323 28.0469 29.5156C27.8385 29.099 27.4948 28.7292 27.0156 28.4062C26.5469 28.0833 25.9115 27.7708 25.1094 27.4688C23.7552 26.9479 22.5625 26.3958 21.5312 25.8125C20.5104 25.2188 19.7135 24.4844 19.1406 23.6094C18.5677 22.724 18.2812 21.6042 18.2812 20.25C18.2812 18.9583 18.5885 17.8385 19.2031 16.8906C19.8177 15.9427 20.6667 15.2135 21.75 14.7031C22.8438 14.1823 24.1146 13.9219 25.5625 13.9219C26.6667 13.9219 27.6667 14.0885 28.5625 14.4219C29.4583 14.7448 30.2292 15.224 30.875 15.8594C31.5208 16.4844 32.0156 17.25 32.3594 18.1562C32.7031 19.0625 32.875 20.099 32.875 21.2656H28.3906C28.3906 20.6406 28.3229 20.0885 28.1875 19.6094C28.0521 19.1302 27.8542 18.7292 27.5938 18.4062C27.3438 18.0833 27.0417 17.8438 26.6875 17.6875C26.3333 17.5208 25.9427 17.4375 25.5156 17.4375C24.8802 17.4375 24.3594 17.5625 23.9531 17.8125C23.5469 18.0625 23.25 18.401 23.0625 18.8281C22.8854 19.2448 22.7969 19.724 22.7969 20.2656C22.7969 20.7969 22.8906 21.2604 23.0781 21.6562C23.276 22.0521 23.6146 22.4167 24.0938 22.75C24.5729 23.0729 25.2292 23.4062 26.0625 23.75C27.4167 24.2708 28.6042 24.8333 29.625 25.4375C30.6458 26.0417 31.4427 26.7812 32.0156 27.6562C32.5885 28.5312 32.875 29.6458 32.875 31C32.875 32.3438 32.5625 33.4896 31.9375 34.4375C31.3125 35.375 30.4375 36.0938 29.3125 36.5938C28.1875 37.0833 26.8854 37.3281 25.4062 37.3281C24.4479 37.3281 23.4948 37.2031 22.5469 36.9531C21.599 36.6927 20.7396 36.276 19.9688 35.7031C19.1979 35.1302 18.5833 34.3698 18.125 33.4219C17.6667 32.4635 17.4375 31.2865 17.4375 29.8906H21.9375C21.9375 30.651 22.0365 31.2865 22.2344 31.7969C22.4323 32.2969 22.6927 32.6979 23.0156 33C23.349 33.2917 23.724 33.5 24.1406 33.625C24.5573 33.75 24.9792 33.8125 25.4062 33.8125C26.0729 33.8125 26.6198 33.6927 27.0469 33.4531C27.4844 33.2135 27.8125 32.8854 28.0312 32.4688C28.2604 32.0417 28.375 31.5625 28.375 31.0312Z" fill="white"/>
<defs>
<clipPath id="clip0_2_699">
<rect width="50" height="50" fill="white" transform="translate(0 0.10498)"/>
</clipPath>
</defs>
</svg>
