<svg width="60" height="60" viewBox="0 0 60 60" fill="none" xmlns="http://www.w3.org/2000/svg">
<path d="M7.96875 0.1875C5.87109 0.632812 3.79688 2.27344 2.82422 4.21875C1.72266 6.46875 1.72266 8.75391 2.82422 11.0156C3.80859 13.0195 5.80078 14.5664 8.05078 15.0703C10.4648 15.6094 13.207 14.7891 15 13.0078C16.7695 11.2266 17.5781 8.53125 17.0625 6.09375C16.5938 3.87891 15.0117 1.81641 13.0078 0.832031C11.3789 0.0351562 9.67969 -0.1875 7.96875 0.1875Z" fill="#E4C107"/>
<path d="M48.75 0.1875C45.9727 0.773438 43.582 3.19922 42.9375 6.04688C42.3984 8.47266 43.2187 11.2148 45 13.0078C46.793 14.7891 49.5352 15.6094 51.9492 15.0703C54.1992 14.5664 56.1914 13.0195 57.1758 11.0156C58.2773 8.75391 58.2773 6.46875 57.1758 4.21875C56.4844 2.82422 55.1836 1.52344 53.7891 0.832031C52.1602 0.0351562 50.4609 -0.1875 48.75 0.1875Z" fill="#E4C107"/>
<path d="M24.7031 7.85156C23.918 8.27344 20.5664 10.2188 20.4258 10.3359C20.1445 10.5586 20.25 10.9922 20.6602 11.2852C21.4688 11.8945 24.9609 13.8281 25.2422 13.8281C25.5938 13.8281 25.7813 13.5352 25.7813 12.9609V12.5391H30H34.2188V12.9609C34.2188 13.5352 34.4063 13.8281 34.7578 13.8281C35.0391 13.8281 38.5313 11.8945 39.3516 11.2852C39.75 10.9922 39.8555 10.5586 39.5859 10.3359C39.375 10.1719 35.25 7.79297 34.9922 7.69922C34.8633 7.64062 34.6641 7.6875 34.5 7.79297C34.2774 7.93359 34.2188 8.07422 34.2188 8.49609V9.02344H30H25.7813V8.50781C25.7813 8.09766 25.7227 7.94531 25.5234 7.80469C25.1953 7.57031 25.2188 7.57031 24.7031 7.85156Z" fill="#E4C107"/>
<path d="M5.91797 16.8164C3.21094 17.4375 1.24219 19.1836 0.375 21.7266L0.0585938 22.6758V28.5586C0.0585938 34.3125 0.0585938 34.4414 0.304688 34.7578C0.433594 34.9336 0.691406 35.1914 0.867188 35.3203C1.18359 35.5664 1.28906 35.5664 9.60938 35.5664C17.9297 35.5664 18.0352 35.5664 18.3516 35.3203C18.5273 35.1914 18.7852 34.9336 18.9141 34.7578C19.1602 34.4414 19.1602 34.3125 19.1602 28.5586C19.1602 22.8047 19.1602 22.6523 18.9023 21.8555C18.1875 19.5938 16.3945 17.7773 14.1328 17.0273C13.207 16.7227 13.1133 16.7109 9.90234 16.6758C7.44141 16.6523 6.44531 16.6875 5.91797 16.8164Z" fill="#E4C107"/>
<path d="M46.8867 16.7578C44.0742 17.3438 41.9297 19.2305 41.0977 21.8555C40.8398 22.6523 40.8398 22.8047 40.8398 28.5586C40.8398 34.3125 40.8398 34.4414 41.0859 34.7578C41.2148 34.9336 41.4727 35.1914 41.6484 35.3203C41.9648 35.5664 42.0703 35.5664 50.3906 35.5664C58.7109 35.5664 58.8164 35.5664 59.1328 35.3203C59.3086 35.1914 59.5664 34.9336 59.6953 34.7578C59.9414 34.4414 59.9414 34.3125 59.9414 28.5586V22.6758L59.625 21.7266C58.8516 19.4648 57.082 17.7188 54.7852 16.9805C54.0234 16.7344 53.7305 16.7109 50.6836 16.6875C48.8789 16.6641 47.168 16.6992 46.8867 16.7578Z" fill="#E4C107"/>
<path d="M28.7109 24.4922C27.1172 24.7852 25.8633 25.4648 24.6562 26.6602C23.0508 28.2656 22.289 30.1875 22.4179 32.4141C22.5937 35.5547 24.6328 38.2148 27.6562 39.2695C28.3008 39.5039 28.6523 39.5391 30 39.5391C31.3476 39.5391 31.6992 39.5039 32.3437 39.2695C35.3672 38.2148 37.4062 35.5547 37.582 32.4141C37.7109 30.1875 36.9492 28.2656 35.3437 26.6602C33.8672 25.1953 32.3554 24.5156 30.3515 24.4336C29.7422 24.4102 29.0039 24.4336 28.7109 24.4922Z" fill="#E4C107"/>
<path d="M5.07422 39.1639C4.62891 39.7499 2.46094 43.7343 2.46094 43.9804C2.46094 44.3436 2.75391 44.5311 3.32812 44.5311H3.73828L3.77344 47.2733C3.82031 51.246 3.64453 51.0936 8.17969 51.0936H11.25V51.6093C11.25 52.1835 11.5664 52.5468 11.9414 52.4179C12.0469 52.3827 13.1484 51.7616 14.3906 51.0585C16.8633 49.6288 17.0508 49.4413 16.5117 48.9374C16.0664 48.5155 12.1055 46.289 11.8008 46.289C11.4023 46.289 11.25 46.5116 11.25 47.0741V47.578H9.25781H7.26562V46.0546V44.5311H7.73438C8.29688 44.5311 8.73047 44.1796 8.61328 43.8163C8.53125 43.5819 6.15234 39.4218 5.95312 39.1639C5.88281 39.0936 5.68359 39.0233 5.50781 39.0233C5.33203 39.0233 5.13281 39.0936 5.07422 39.1639Z" fill="#E4C107"/>
<path d="M54.0586 39.1639C53.8476 39.4218 51.4687 43.5702 51.3867 43.8163C51.2695 44.1796 51.7031 44.5311 52.2656 44.5311H52.7343V46.0546V47.578H50.7422H48.75V47.0741C48.75 46.5116 48.5976 46.289 48.1992 46.289C47.8945 46.289 43.9336 48.5155 43.4883 48.9374C42.9492 49.4413 43.1367 49.6288 45.6093 51.0585C46.8515 51.7616 47.9531 52.3827 48.0586 52.4179C48.4336 52.5468 48.75 52.1835 48.75 51.6093V51.0936H51.832C55.207 51.0936 55.4297 51.0585 55.9453 50.3554C56.1797 50.039 56.1914 49.8397 56.2265 47.2733L56.2617 44.5311H56.6718C57.2578 44.5311 57.539 44.3436 57.539 43.9686C57.539 43.7811 57 42.7264 56.2148 41.3671C54.9843 39.246 54.8672 39.0819 54.539 39.0468C54.3398 39.0233 54.1172 39.0819 54.0586 39.1639Z" fill="#E4C107"/>
<path d="M26.5195 41.1444C23.8594 41.6014 21.5859 43.5819 20.7305 46.1835L20.4492 47.0506V52.9335C20.4492 58.6874 20.4492 58.8163 20.6953 59.1327C20.8242 59.3085 21.082 59.5663 21.2578 59.6952C21.5742 59.9413 21.7031 59.9413 29.8477 59.9764C38.0156 59.9999 38.1211 59.9999 38.625 59.7655C38.9883 59.578 39.1875 59.3788 39.375 59.0038C39.6211 58.4999 39.6211 58.3944 39.5859 52.7108L39.5508 46.9335L39.2344 46.078C38.4258 43.828 36.75 42.1756 34.5352 41.4139C33.5859 41.0858 33.5508 41.0858 30.3516 41.0624C28.582 41.0389 26.8594 41.0858 26.5195 41.1444Z" fill="#E4C107"/>
</svg>
