<svg width="60" height="60" viewBox="0 0 60 60" fill="none" xmlns="http://www.w3.org/2000/svg">
<path d="M20.3438 0.234377C14.9688 1.45313 11.4688 7.01563 12.7969 12.2188C12.9688 12.875 13.2812 13.7656 13.5 14.2031L13.9062 14.9844L7.75 15.0313C1.79688 15.0781 1.5625 15.0938 1.15625 15.4063C0.921875 15.5781 0.578125 15.9219 0.40625 16.1563C0.09375 16.5781 0.078125 16.7656 0.078125 22.5C0.078125 28.2344 0.09375 28.4219 0.40625 28.8438C0.578125 29.0781 0.921875 29.4219 1.15625 29.5938L1.57812 29.9219H30H58.4219L58.8438 29.5938C59.0781 29.4219 59.4219 29.0781 59.5938 28.8438C59.9062 28.4219 59.9219 28.2344 59.9219 22.5C59.9219 16.7656 59.9062 16.5781 59.5938 16.1563C59.4219 15.9219 59.0781 15.5781 58.8438 15.4063C58.4375 15.0938 58.2031 15.0781 52.2656 15.0313L46.1094 14.9844L46.5781 14C48.3125 10.2969 47.5 5.95313 44.5312 2.96875C43.3438 1.79688 42.2188 1.07813 40.5938 0.500002C39.6094 0.156252 39.2031 0.0937519 37.5781 0.0781269C36.0156 0.0781269 35.5156 0.140627 34.6094 0.437502C33.1406 0.937502 32.0469 1.57813 30.9219 2.60938L30 3.48438L29.0938 2.625C27.3594 0.984377 25.3906 0.171877 22.8906 0.0625019C21.875 0.0312519 20.9844 0.0781269 20.3438 0.234377ZM24.625 5.46875C25.5938 5.9375 26.5469 6.90625 27.0469 7.89063C27.4062 8.625 27.4219 8.84375 27.4688 11.8438L27.5312 15.0156L24.3438 14.9688C21.3438 14.9219 21.125 14.9063 20.3906 14.5469C17.6094 13.1719 16.6719 9.79688 18.3594 7.23438C18.9531 6.34375 20 5.53125 21 5.21875C21.9531 4.90625 23.6875 5.03125 24.625 5.46875ZM39.625 5.46875C40.5938 5.95313 41.5469 6.90625 42.0312 7.89063C42.3438 8.53125 42.4219 8.90625 42.4219 10C42.4219 11.0938 42.3438 11.4688 42.0312 12.1094C41.5469 13.0938 40.5938 14.0469 39.6094 14.5469C38.875 14.9063 38.6562 14.9219 35.6719 14.9688L32.5 15.0156V12.1406C32.5 10.1719 32.5625 9.04688 32.7188 8.5625C33.1562 7.0625 34.5 5.70313 36 5.21875C36.9531 4.90625 38.6875 5.03125 39.625 5.46875Z" fill="#4568DC"/>
<path d="M5.03125 46.7031C5.07812 58.25 5.07812 58.4219 5.40625 58.8438C5.57812 59.0781 5.92188 59.4219 6.15625 59.5938C6.57812 59.9219 6.76562 59.9219 17.0469 59.9688L27.5 60V47.5V35H16.25H5L5.03125 46.7031Z" fill="#4568DC"/>
<path d="M32.5 47.5V60L42.9531 59.9688C53.2344 59.9219 53.4219 59.9219 53.8438 59.5938C54.0781 59.4219 54.4219 59.0781 54.5938 58.8438C54.9219 58.4219 54.9219 58.25 54.9688 46.7031L55 35H43.75H32.5V47.5Z" fill="#4568DC"/>
</svg>
