<svg width="68" height="68" viewBox="0 0 68 68" fill="none" xmlns="http://www.w3.org/2000/svg">
<path d="M3.98765 0.66653C2.15531 0.672867 0.672989 2.15515 0.666689 3.98749V63.9861C0.659609 65.828 2.14577 67.3266 3.98765 67.3331H60.6653C63.9993 67.3331 67.3333 63.9992 67.3333 60.6652C67.3333 49.5803 67.3333 24.0076 67.3333 7.33449C67.3403 5.483 65.8378 3.98037 63.9863 3.98749H53.9974C52.1555 3.99415 50.6693 5.49262 50.6764 7.33449V60.6652H47.3229V27.3189C47.3166 25.4866 45.8342 24.0044 44.0019 23.9979H33.987C32.1547 24.0042 30.6725 25.4866 30.666 27.3189V60.6652H27.319V47.3227C27.3127 45.4905 25.8303 44.0083 23.9981 44.0018H13.9766C12.1443 44.0081 10.6621 45.4905 10.6556 47.3227V60.6652H7.33466V3.98749C7.32833 2.14552 5.82959 0.659274 3.98765 0.66653ZM57.3444 10.6555H60.6653V60.6652H57.3444V10.6555ZM37.334 30.6658H40.6549V60.6652H37.334V30.6658ZM17.3236 50.6763H20.6445V60.6652H17.3236V50.6763Z" fill="#4568DC"/>
</svg>
