<svg width="55" height="55" viewBox="0 0 55 55" fill="none" xmlns="http://www.w3.org/2000/svg">
<path d="M9.18457 0.257442C6.82129 0.880489 5.07032 1.901 3.42676 3.61975C-1.49316 8.776 -0.827145 17.1012 4.85547 21.3766C8.50782 24.1373 13.2451 24.5778 17.3594 22.5582C22.4297 20.0768 25.083 14.2653 23.6436 8.79748C22.5371 4.59729 19.2178 1.3424 14.9531 0.257442C14.0615 0.0318565 13.6963 -0.000370026 12.042 -0.000370026C10.4199 0.0103722 10.0117 0.0425987 9.18457 0.257442ZM13.6104 8.80822C14.7705 9.37756 15.4688 10.4733 15.4795 11.7301C15.4902 12.6324 15.3291 13.1803 14.8994 13.8141C13.7393 15.5006 11.3115 15.7799 9.74317 14.4049C9.52832 14.2115 9.19532 13.7389 9.00196 13.3522C8.37891 12.0846 8.58301 10.6129 9.51758 9.58166C10.5703 8.40002 12.1494 8.09924 13.6104 8.80822Z" fill="#720ADB"/>
<path d="M48.2002 0.257595C47.8565 0.397243 47.3945 0.644314 47.1797 0.794704C46.9541 0.945095 36.4805 11.3758 23.8799 23.9763C-0.569326 48.4471 0.64454 47.1795 0.268564 48.6297C-0.150382 50.2517 0.408212 52.2713 1.61134 53.4314C2.83595 54.6346 4.7588 55.1502 6.39161 54.7312C7.85255 54.3445 6.63868 55.5047 31.2705 30.8513C57.8037 4.3074 54.9463 7.43338 54.9463 4.94119C54.9463 3.51248 54.9356 3.48025 54.5811 2.74978C54.1084 1.78299 53.2276 0.891384 52.2608 0.418728C51.5518 0.0642357 51.4551 0.0534935 50.166 0.0212669C48.9522 -0.000217438 48.7695 0.0212669 48.2002 0.257595Z" fill="#720ADB"/>
<path d="M41.626 31.0554C36.9209 31.6892 32.9463 35.1052 31.6465 39.6384C29.4121 47.4802 35.5352 55.2254 43.667 54.8601C46.707 54.7205 49.4141 53.5174 51.5732 51.3582C53.1309 49.8006 54.1943 47.9314 54.7422 45.7937C54.9678 44.9129 55 44.5154 55 43.0008C55 40.992 54.8603 40.0896 54.291 38.6394C52.8301 34.8367 49.5322 32.0437 45.5254 31.2058C44.5586 31.0017 42.582 30.9265 41.626 31.0554ZM44.7949 39.9177C46.1484 40.6482 46.8467 42.2381 46.4707 43.7097C46.127 45.074 45.2891 45.9119 43.9141 46.2556C41.8516 46.782 39.7461 45.1814 39.7354 43.0652C39.7246 42.1736 39.875 41.6365 40.2832 41.0134C41.25 39.5633 43.248 39.0691 44.7949 39.9177Z" fill="#720ADB"/>
</svg>
