<svg width="72" height="80" viewBox="0 0 72 80" fill="none" xmlns="http://www.w3.org/2000/svg">
<path d="M30.1875 0.328232C29.2188 0.828232 28.9688 1.53136 28.9688 3.70323V5.56261L27.8438 5.84386C26.1719 6.26574 23.0781 7.53136 21.4531 8.43761L20.0312 9.23449L18.5938 7.84386C17.0312 6.32824 16.5781 6.12511 15.4688 6.42199C14.9375 6.56261 14.25 7.15636 11.25 10.1251C7.35938 13.9845 6.98438 14.5001 7.17188 15.6564C7.26562 16.1876 7.53125 16.547 8.6875 17.7501L10.0781 19.1876L9.29688 20.5782C8.39062 22.1564 7.10938 25.3282 6.6875 26.9845L6.40625 28.1251H4.54688C2.34375 28.1251 1.67188 28.3751 1.15625 29.3751C0.859375 29.9532 0.84375 30.2814 0.84375 35.1564C0.84375 40.0314 0.859375 40.3595 1.15625 40.9376C1.67188 41.9376 2.34375 42.1876 4.5625 42.1876H6.42188L6.625 43.0782C7.20312 45.7189 9.3125 50.547 10.2031 51.2814C10.4688 51.5157 10.9219 51.7501 11.2031 51.797C11.4844 51.8439 13.375 51.8751 15.4219 51.8439L19.125 51.797L18.25 50.7032C12.0938 43.0782 10.8594 33.0157 15.0469 24.7345C18.3594 18.172 24.1719 13.7345 31.4688 12.172C33.8281 11.6564 38.1562 11.6564 40.5312 12.172C50 14.1876 56.9844 21.172 58.9844 30.6251C59.4531 32.8439 59.5 36.8439 59.0625 39.1407C58.2812 43.422 56.4844 47.3126 53.75 50.7032L52.875 51.797L56.5781 51.8439C58.625 51.8751 60.5156 51.8439 60.7969 51.797C61.6875 51.6407 62.25 50.9845 63.2031 48.9845C64.0781 47.2032 65.2188 44.0314 65.4531 42.7657L65.5625 42.1876H67.4375C69.6562 42.1876 70.3281 41.9376 70.8438 40.9376C71.1406 40.3595 71.1562 40.0314 71.1562 35.1564C71.1562 30.2814 71.1406 29.9532 70.8438 29.3751C70.3281 28.3751 69.6562 28.1251 67.4531 28.1251H65.5938L65.3125 26.9845C64.8906 25.3282 63.6094 22.1564 62.7031 20.5782L61.9219 19.1876L63.3125 17.7501C64.8281 16.1876 65.0312 15.7345 64.7344 14.6251C64.5938 14.0782 64 13.422 60.875 10.2814C57.7344 7.15636 57.0781 6.56261 56.5312 6.42199C55.4219 6.12511 54.9688 6.32824 53.4062 7.84386L51.9844 9.21886L50.5781 8.43761C48.9531 7.53136 45.7969 6.25011 44.1719 5.84386L43.0312 5.56261V3.70323C43.0312 1.50011 42.7812 0.828232 41.7812 0.312607C41.2031 0.0157318 40.875 0.000106812 35.9688 0.000106812C31.0938 0.0157318 30.7344 0.0313568 30.1875 0.328232Z" fill="#F0B90B"/>
<path d="M34.125 16.4844C34 16.5156 33.3594 16.625 32.7187 16.7187C27.1562 17.625 21.8906 21.5312 19.2812 26.7187C15.9062 33.4062 16.8594 41.5469 21.7187 47.5C23.8437 50.125 25.1094 52.4375 25.8906 55.1562L26.2812 56.4844L29.7344 56.5312C32.4687 56.5625 33.1719 56.5312 33.1094 56.375C32.9687 55.9375 28.9687 35.3437 28.9687 35.0156C28.9687 34 30.2187 32.8125 31.2969 32.8125C32.0781 32.8125 32.9844 33.3594 33.3125 34.0312C33.4844 34.3437 34.125 37.25 34.7656 40.5C35.3906 43.75 35.9531 46.4062 36 46.4062C36.0469 46.4062 36.6094 43.75 37.2344 40.5C37.875 37.2656 38.5156 34.3594 38.6719 34.0469C39.4844 32.4375 41.8906 32.4375 42.7188 34.0625C42.8906 34.3906 43.0312 34.8281 43.0312 35.0312C43.0312 35.3437 39.0312 55.9219 38.8906 56.3594C38.8438 56.5156 39.5938 56.5625 42.3281 56.5625C45.7969 56.5625 45.8438 56.5625 45.8438 56.2344C45.8438 55.625 46.7969 53.0469 47.5938 51.5312C48.3125 50.1719 48.8594 49.3594 51.1094 46.4219C52.4219 44.7031 53.7812 41.5156 54.375 38.7187C54.7344 37.0937 54.7656 33.3906 54.4531 31.7969C52.9688 24.3125 47.4062 18.5312 40.0625 16.8594C38.8438 16.5781 34.7812 16.3125 34.125 16.4844Z" fill="#F0B90B"/>
<path d="M26.6562 63C26.7031 64.3438 26.7969 64.9375 27.0312 65.4844C27.5 66.5156 28.25 67.2656 29.25 67.7656L30.1406 68.2031H36C41.625 68.2031 41.8906 68.1875 42.5781 67.875C43.6094 67.3906 44.375 66.6562 44.8594 65.6562C45.2344 64.875 45.2969 64.5469 45.3594 63L45.4062 61.25H36H26.5938L26.6562 63Z" fill="#F0B90B"/>
<path d="M31.3438 74.7188C31.3906 76.0625 31.4844 76.6562 31.7188 77.2031C32.1875 78.2344 32.9375 78.9844 33.9375 79.4844C34.6719 79.8438 35.0312 79.9219 36 79.9219C37.9375 79.9062 39.3594 79.0469 40.1719 77.375C40.5469 76.5938 40.6094 76.2656 40.6719 74.7188L40.7188 72.9688H36H31.2812L31.3438 74.7188Z" fill="#F0B90B"/>
</svg>
