<svg width="58" height="58" viewBox="0 0 58 58" fill="none" xmlns="http://www.w3.org/2000/svg">
<path d="M26.6211 0.2892C15.2656 1.30873 5.73827 8.65639 1.85937 19.3673C1.33202 20.8322 0.687493 23.4689 0.441399 25.1915C0.171868 27.1134 0.171868 30.8986 0.453118 32.8087C1.36718 39.2658 4.17968 44.8908 8.77343 49.4494C15.3828 56.0119 24.7344 58.9533 33.957 57.3595C42.8984 55.8244 50.6797 49.9884 54.7812 41.797C57.0195 37.3087 58.0859 32.0236 57.7344 27.2189C57.3476 21.922 55.8008 17.3517 52.9883 13.0978C48.4531 6.24232 41.3164 1.71889 33.1836 0.523575C31.3789 0.254044 28.25 0.148575 26.6211 0.2892ZM32.4336 5.85561C38.9258 6.82826 44.7969 10.5548 48.4531 16.0275C49.3789 17.4103 50.668 20.0353 51.1953 21.6173C53.1055 27.3244 52.6836 33.6642 50.0469 39.1369C47.7266 43.9533 43.8594 47.797 39.043 50.0939C30.5937 54.1251 20.7266 52.754 13.5547 46.5431C11.3633 44.6447 9.42968 42.1134 8.03515 39.3009C4.77734 32.7501 4.80077 25.1329 8.10546 18.5119C11.7031 11.3048 18.8047 6.46498 26.9023 5.67982C28.2851 5.55092 30.957 5.63295 32.4336 5.85561Z" fill="#4568DC"/>
<path d="M26.7734 8.1058C25.8711 8.19955 23.7617 8.64486 22.8594 8.92611C17.0469 10.7425 12.3359 14.9144 9.83983 20.4574C8.50389 23.3988 7.94139 26.4105 8.05858 29.8206C8.33983 37.9183 13.25 45.0433 20.7969 48.3011C23.7265 49.5667 26.4687 50.0589 29.8203 49.9417C37.4844 49.6722 44.3516 45.2308 47.7969 38.3167C49.3906 35.1058 50.0703 31.8831 49.9414 28.18C49.5781 17.9144 41.7617 9.43002 31.4609 8.15267C30.5351 8.03548 27.6992 8.01205 26.7734 8.1058ZM31.2969 15.0199C31.2617 15.137 30.8867 17.1527 30.4648 19.5081C30.043 21.8636 29.6562 23.9027 29.6328 24.0433L29.5625 24.2894L30.8984 24.0081C31.625 23.8558 32.2344 23.7269 32.2578 23.7269C32.2695 23.7269 32.2812 24.2191 32.2812 24.8167V25.9183L30.793 26.2347C29.9726 26.4105 29.2578 26.5863 29.2226 26.6331C29.1406 26.7152 27.4765 35.8324 27.4765 36.1839C27.4765 36.3714 27.8633 36.3831 33.4531 36.3831C36.7461 36.3831 39.4297 36.3949 39.4297 36.4066C39.4297 36.43 39.1133 37.4964 38.7383 38.7855L38.0586 41.1292L28.4961 41.1644L18.9219 41.1878L18.9922 40.8714C19.625 37.473 21.2305 28.3441 21.1953 28.3089C21.1719 28.2855 20.6211 28.3792 19.9766 28.5199C19.332 28.6488 18.7461 28.766 18.6875 28.766C18.6172 28.766 18.5703 28.2972 18.5703 27.6761V26.598L20.1172 26.2699C20.9609 26.0941 21.664 25.9417 21.6758 25.9183C21.6875 25.9066 22.1328 23.4691 22.6719 20.5042C23.1992 17.5394 23.668 15.0433 23.7031 14.9613C23.7383 14.8558 24.6172 14.8206 27.5586 14.8206C31.1211 14.8206 31.3555 14.8324 31.2969 15.0199Z" fill="#4568DC"/>
</svg>
