<svg width="64" height="60" viewBox="0 0 64 60" fill="none" xmlns="http://www.w3.org/2000/svg">
<path d="M32.2667 19.3332C37.0667 19.3332 41.0667 22.7998 41.6 27.3332C42.1333 31.8665 38.1333 35.3332 32.5333 35.3332C26.9333 35.3332 22.9333 31.8665 23.2 27.3332C23.4667 22.7998 27.4667 19.3332 32.2667 19.3332ZM44.5333 13.9998L49.6 43.5998C48.8 43.3332 48 43.3332 46.6667 43.3332C42.6667 43.5998 39.4667 46.2665 39.2 49.1998C39.2 49.9998 39.2 50.7998 39.4667 51.3332H26.6667C26.9333 50.7998 26.9333 49.9998 26.9333 49.1998C26.4 46.2665 23.2 43.5998 19.2 43.3332C18.1333 43.3332 17.0667 43.3332 16.2667 43.3332L20 13.9998H13.3333L6.4 51.3332C5.6 55.8665 6.4 59.3332 13.0667 59.3332H53.6C60.2667 59.3332 60.8 55.8665 59.7333 51.3332L50.6667 13.9998H44.5333ZM61.3333 0.666504H2.66667C1.06667 0.666504 0 1.73317 0 3.33317V16.6665C0 18.2665 1.06667 19.3332 2.66667 19.3332H6.66667L9.06667 8.6665H54.6667L57.8667 19.3332H61.3333C62.9333 19.3332 64 18.2665 64 16.6665V3.33317C64 1.73317 62.9333 0.666504 61.3333 0.666504Z" fill="#FF4B2B"/>
</svg>
