<svg width="37" height="37" viewBox="0 0 37 37" fill="none" xmlns="http://www.w3.org/2000/svg">
<path d="M12.4367 0.523438C12.0178 0.691016 11.835 1.23184 12.0559 1.65078C12.1168 1.76504 13.8459 3.53223 15.9025 5.58887L19.6426 9.32129L21.3184 7.64551C22.2401 6.72383 22.9942 5.94688 22.9942 5.91641C22.9942 5.84023 21.3336 4.52246 20.4805 3.9207C18.2563 2.34395 15.377 0.980469 13.4117 0.561523C12.7871 0.432032 12.6652 0.432032 12.4367 0.523438Z" fill="white"/>
<path d="M21.9887 9.26057C19.9777 11.2715 18.9342 12.3684 18.8809 12.5283C18.8276 12.6959 18.8276 12.833 18.8809 12.9854C18.9875 13.2672 23.6416 17.9518 23.9539 18.0889C24.4414 18.3022 24.5024 18.2489 27.7397 15.0115L30.7637 11.9799V11.6067V11.2258L28.2652 8.73499L25.7744 6.23655H25.3936H25.0203L21.9887 9.26057Z" fill="white"/>
<path d="M29.3545 15.6819L27.6787 17.3576L31.4111 21.0977C33.4678 23.1543 35.235 24.8834 35.3492 24.9444C35.8215 25.1957 36.4232 24.9215 36.5146 24.4188C36.6822 23.4971 35.3111 20.0084 33.8867 17.7385C33.0945 16.4817 31.2283 14.0061 31.076 14.0061C31.0531 14.0061 30.2762 14.7602 29.3545 15.6819Z" fill="white"/>
<path d="M9.49649 24.0378C3.36466 30.1772 0.515827 33.0794 0.477741 33.2241C0.378718 33.6431 0.50821 33.8259 1.84122 35.1589C3.17423 36.4919 3.35704 36.6214 3.77598 36.5224C3.92071 36.4843 6.82286 33.6354 12.9775 27.4807L21.9658 18.5001L20.252 16.7862C19.3074 15.8417 18.5229 15.0724 18.5 15.0724C18.4772 15.0724 14.4248 19.1095 9.49649 24.0378Z" fill="white"/>
</svg>
